<svg width="24" height="24" fill="none" xmlns="http://www.w3.org/2000/svg"><path d="M1.332 1.116c-.279.202-.332.332-.332.807 0 .379.009.425.103.562.097.139.29.292.477.377.044.02.781.046 1.638.057l1.558.021 1.165 5.82c.641 3.201 1.188 5.892 1.217 5.98.273.843 1.021 1.553 1.922 1.826l.3.091 4.64.013c3.006.009 4.785-.001 5.053-.028.528-.053.88-.177 1.304-.459a2.715 2.715 0 0 0 1.088-1.364c.054-.149.405-1.886.815-4.033.667-3.492.72-3.806.72-4.221 0-.312-.018-.483-.057-.56-.087-.168-.359-.394-.53-.442-.105-.029-2.48-.043-7.623-.043-4.109 0-7.47-.007-7.47-.015 0-.116-.815-3.978-.856-4.056a1.3 1.3 0 0 0-.411-.404C5.991 1.013 5.301 1 3.729 1H1.492l-.16.116M20.853 7.51c.03.049-1.208 6.497-1.278 6.657-.035.08-.121.201-.19.268-.265.257-.01.245-5.08.245L9.7 14.679l-.205-.095a.87.87 0 0 1-.432-.444c-.023-.061-1.343-6.6-1.343-6.649 0-.027 13.117-.008 13.133.019M8.96 18.367c-.171.02-.358.079-.552.175a1.898 1.898 0 0 0-.51 3.043c.688.689 1.731.768 2.502.188a1.904 1.904 0 0 0 .264-2.8c-.437-.487-.999-.686-1.704-.606m10.08 0c-.576.067-1.146.491-1.429 1.063-.135.274-.15.337-.165.7-.019.487.057.81.272 1.141a1.898 1.898 0 0 0 1.742.878c.385-.025.689-.133.998-.355.898-.642 1.046-1.98.31-2.799-.455-.506-1.016-.71-1.728-.628m-9.727 1.886c.007.039-.013.067-.048.067-.074 0-.119-.065-.084-.122.036-.059.116-.025.132.055M19.4 20.24c0 .044-.026.08-.058.08-.07 0-.115-.066-.082-.12.043-.07.14-.043.14.04" fill-rule="evenodd" fill="#000"></path></svg>
