<svg aria-hidden="true" style="position: absolute; width: 0; height: 0; overflow: hidden;" version="1.1" xmlns="http://www.w3.org/2000/svg" xmlns:xlink="http://www.w3.org/1999/xlink">
<defs>
<symbol id="youtube" viewBox="0 0 32 32">
<path d="M28.724 8.664c0.609 2.376 0.609 7.336 0.609 7.336s0 4.96-0.609 7.336c-0.339 1.313-1.329 2.347-2.584 2.696-2.279 0.635-10.14 0.635-10.14 0.635s-7.857 0-10.14-0.635c-1.26-0.355-2.249-1.387-2.584-2.696-0.609-2.376-0.609-7.336-0.609-7.336s0-4.96 0.609-7.336c0.339-1.313 1.329-2.347 2.584-2.696 2.283-0.635 10.14-0.635 10.14-0.635s7.861 0 10.14 0.635c1.26 0.355 2.249 1.387 2.584 2.696zM13.333 20.667l8-4.667-8-4.667v9.333z"></path>
</symbol>
<symbol id="instargam" viewBox="0 0 32 32">
<path d="M16 2.667c3.623 0 4.075 0.013 5.496 0.080 1.42 0.067 2.387 0.289 3.237 0.62 0.88 0.339 1.621 0.797 2.363 1.537 0.678 0.667 1.203 1.473 1.537 2.363 0.329 0.849 0.553 1.817 0.62 3.237 0.063 1.421 0.080 1.873 0.080 5.496s-0.013 4.075-0.080 5.496c-0.067 1.42-0.291 2.387-0.62 3.237-0.334 0.89-0.859 1.697-1.537 2.363-0.667 0.678-1.473 1.202-2.363 1.537-0.849 0.329-1.817 0.553-3.237 0.62-1.421 0.063-1.873 0.080-5.496 0.080s-4.075-0.013-5.496-0.080c-1.42-0.067-2.387-0.291-3.237-0.62-0.89-0.334-1.697-0.859-2.363-1.537-0.678-0.666-1.203-1.473-1.537-2.363-0.331-0.849-0.553-1.817-0.62-3.237-0.063-1.421-0.080-1.873-0.080-5.496s0.013-4.075 0.080-5.496c0.067-1.421 0.289-2.387 0.62-3.237 0.334-0.89 0.858-1.697 1.537-2.363 0.666-0.678 1.473-1.203 2.363-1.537 0.851-0.331 1.816-0.553 3.237-0.62 1.421-0.063 1.873-0.080 5.496-0.080zM16 9.333c-1.768 0-3.464 0.702-4.714 1.953s-1.953 2.946-1.953 4.714c0 1.768 0.702 3.464 1.953 4.714s2.946 1.953 4.714 1.953 3.464-0.702 4.714-1.953c1.25-1.25 1.953-2.946 1.953-4.714s-0.702-3.464-1.953-4.714c-1.25-1.25-2.946-1.953-4.714-1.953zM24.667 9c0-0.442-0.176-0.866-0.488-1.178s-0.737-0.488-1.179-0.488c-0.442 0-0.866 0.176-1.179 0.488s-0.488 0.736-0.488 1.178c0 0.442 0.176 0.866 0.488 1.178s0.737 0.488 1.179 0.488c0.442 0 0.866-0.176 1.179-0.488s0.488-0.736 0.488-1.178zM16 12c1.061 0 2.078 0.421 2.828 1.172s1.172 1.768 1.172 2.828c0 1.061-0.421 2.078-1.172 2.828s-1.768 1.172-2.828 1.172c-1.061 0-2.078-0.421-2.828-1.172s-1.172-1.768-1.172-2.828c0-1.061 0.421-2.078 1.172-2.828s1.768-1.172 2.828-1.172z"></path>
</symbol>
<symbol id="facebook" viewBox="0 0 32 32">
<path d="M20.536 28v-9.288h3.111l0.465-3.611h-3.576v-2.304c0-1.045 0.291-1.759 1.789-1.759h1.912v-3.229c-0.926-0.098-1.856-0.146-2.787-0.143-2.756 0-4.643 1.683-4.643 4.773v2.661h-3.117v3.611h3.117v9.288h-11.475c-0.354 0-0.693-0.141-0.943-0.391s-0.391-0.589-0.391-0.943v-21.333c0-0.354 0.14-0.693 0.391-0.943s0.589-0.391 0.943-0.391h21.333c0.354 0 0.693 0.14 0.943 0.391s0.391 0.589 0.391 0.943v21.333c0 0.354-0.141 0.693-0.391 0.943s-0.589 0.391-0.943 0.391h-6.131z"></path>
</symbol>
<symbol id="cart" viewBox="0 0 36 32">
<path d="M0 1.5c0-0.831 0.669-1.5 1.5-1.5h2.844c1.375 0 2.594 0.8 3.162 2h25.688c1.644 0 2.844 1.563 2.413 3.15l-2.563 9.519c-0.531 1.963-2.313 3.331-4.344 3.331h-18.031l0.338 1.781c0.137 0.706 0.756 1.219 1.475 1.219h18.019c0.831 0 1.5 0.669 1.5 1.5s-0.669 1.5-1.5 1.5h-18.019c-2.162 0-4.019-1.538-4.419-3.656l-3.225-16.938c-0.044-0.237-0.25-0.406-0.494-0.406h-2.844c-0.831 0-1.5-0.669-1.5-1.5zM8 29c0-1.657 1.343-3 3-3s3 1.343 3 3v0c0 1.657-1.343 3-3 3s-3-1.343-3-3v0zM29 26c1.657 0 3 1.343 3 3s-1.343 3-3 3v0c-1.657 0-3-1.343-3-3s1.343-3 3-3v0z"></path>
</symbol>
<symbol id="close" viewBox="0 0 32 32">
<path d="M7.2 7.2c0.212-0.212 0.5-0.331 0.8-0.331s0.588 0.119 0.8 0.331l16 16c0.212 0.212 0.331 0.5 0.331 0.8s-0.119 0.588-0.331 0.8c-0.212 0.212-0.5 0.331-0.8 0.331s-0.588-0.119-0.8-0.331l-16-16c-0.212-0.212-0.331-0.5-0.331-0.8s0.119-0.588 0.331-0.8z"></path>
<path d="M24.8 7.2c0.212 0.212 0.331 0.5 0.331 0.8s-0.119 0.588-0.331 0.8l-16 16c-0.212 0.212-0.5 0.331-0.8 0.331s-0.588-0.119-0.8-0.331c-0.212-0.212-0.331-0.5-0.331-0.8s0.119-0.588 0.331-0.8l16-16c0.212-0.212 0.5-0.331 0.8-0.331s0.588 0.119 0.8 0.331z"></path>
</symbol>
</defs>
</svg>
